<?xml version="1.0" standalone="no"?>
<svg version="1.1" xmlns="http://www.w3.org/2000/svg" height="644" width="1320" viewbox="0 0 644 1320" xmlns:xlink="http://www.w3.org/1999/xlink">
    <style>
        @font-face {
        font-family: FuturaPT-BoldObl;
        src: url('../webfonts/382AEF_0_0.eot');
        src: url('../webfonts/382AEF_0_0.eot?#iefix') format('embedded-opentype'),
        url('../webfonts/382AEF_0_0.woff2') format('woff2'),
        url('../webfonts/382AEF_0_0.woff') format('woff'),
        url('../webfonts/382AEF_0_0.ttf') format('truetype');
        }
        .electricsupply-font-large{
        font-family: FuturaPT-BoldObl, Impact, sans-serif;
        font-style: italic;
        font-weight: 700;
        font-size: 416px;
        }
        .electricsupply-font-med{
        font-family: FuturaPT-BoldObl, Impact, sans-serif;
        font-style: italic;
        font-weight: 700;
        font-size: 240px;
        }
        .shimmer {
            fill: url(#shimmer);
        }
    </style>
    <defs>
        <!--
        <linearGradient id="shimmer" x1="0" x2="0" y1="0" y2="1">
            <stop offset="0%" stop-color="#fff152"></stop>
            <stop offset="30%" stop-color="#ffffff"></stop>
            <stop offset="100%" stop-color="#fff152"></stop>
        </linearGradient>
        -->

        <linearGradient id="shimmer" x1="0%" y1="0%" x2="0%" y2="100%">
            <stop offset="0%" stop-color="#fff152"></stop>
            <stop offset="0%" stop-color="#ffffff">
                <animate attributeName="offset" values=".0;1" dur="1s" repeatCount="indefinite"></animate>
            </stop>
            <stop offset="100%" stop-color="#fff152"></stop>
        </linearGradient>
        <polygon id="yellow-lightning-bolt" points="597,3 380,9 146,257 275,255 74,471 160,466 3,643 392,422 255,419 514,215 370,215" style="stroke: #1d1b90; stroke-width: 0; fill:#fff152;"></polygon>
        <polygon id="lightning-bolt-shimmer" points="597,3 380,9 146,257 275,255 74,471 160,466 3,643 392,422 255,419 514,215 370,215" class="shimmer"></polygon>
    </defs>
    <!-- <polygon points="1320,0 1103,9 869,257 998,255 797,471 883,466 720,643 1112,422 975,419 1234,215 1090,215" style="stroke: #1d1b90; stroke-width: 3px; fill: #fff152;"></polygon> -->
    <use x="720" y="0" xlink:href="#yellow-lightning-bolt"></use>
    <use x="720" y="0" xlink:href="#lightning-bolt-shimmer"></use>
    <g id="text" class="" fill="#1d1b90">
        <g>
            <text x="0" y="280" class="electricsupply-font-large">E</text>
            <text x="204" y="226" style="" class="electricsupply-font-med">LECTRIC</text>
        </g>
        <g>
            <text x="53" y="523" style="" class="electricsupply-font-large">S</text>
            <text x="276" y="451" style="" class="electricsupply-font-med">UPPLY</text>
        </g>
    </g>
</svg>